<svg viewBox="0 0 200 200" xmlns="http://www.w3.org/2000/svg" fill="#b9895b"><circle cx="92.3" cy="107.0" r="1.4"/><circle cx="101.3" cy="85.3" r="1.5"/><circle cx="111.0" cy="114.3" r="1.6"/><circle cx="79.5" cy="96.4" r="1.7"/><circle cx="119.6" cy="87.5" r="1.8"/><circle cx="93.4" cy="124.6" r="1.9"/><circle cx="87.3" cy="75.6" r="2.0"/><circle cx="127.6" cy="110.1" r="2.0"/><circle cx="71.2" cy="111.9" r="2.1"/><circle cx="113.9" cy="70.2" r="2.2"/><circle cx="110.3" cy="132.9" r="2.3"/><circle cx="68.8" cy="81.9" r="2.4"/><circle cx="136.6" cy="91.9" r="2.4"/><circle cx="77.6" cy="131.8" r="2.5"/><circle cx="94.8" cy="60.1" r="2.6"/><circle cx="131.8" cy="126.8" r="2.7"/><circle cx="57.2" cy="101.8" r="2.8"/><circle cx="131.3" cy="68.9" r="2.8"/><circle cx="97.9" cy="145.3" r="2.9"/><circle cx="70.2" cy="64.3" r="3.0"/><circle cx="147.2" cy="106.3" r="3.1"/><circle cx="60.0" cy="127.9" r="3.1"/><circle cx="110.9" cy="51.3" r="3.2"/><circle cx="125.3" cy="144.2" r="3.3"/><circle cx="50.5" cy="84.2" r="3.4"/><circle cx="148.1" cy="77.7" r="3.4"/><circle cx="79.2" cy="149.9" r="3.5"/><circle cx="81.4" cy="48.2" r="3.6"/><circle cx="149.6" cy="126.0" r="3.7"/><circle cx="44.9" cy="114.5" r="3.7"/><circle cx="131.3" cy="51.3" r="3.8"/><circle cx="110.0" cy="158.0" r="3.9"/><circle cx="52.7" cy="63.4" r="3.9"/><circle cx="160.4" cy="95.0" r="4.0"/><circle cx="58.2" cy="145.2" r="4.1"/><circle cx="100.3" cy="37.6" r="4.2"/><circle cx="142.5" cy="146.8" r="4.2"/><circle cx="36.2" cy="94.1" r="4.3"/><circle cx="151.7" cy="60.7" r="4.4"/><circle cx="88.3" cy="164.7" r="4.4"/><circle cx="64.5" cy="43.7" r="4.5"/><circle cx="165.0" cy="117.8" r="4.6"/><circle cx="39.3" cy="131.2" r="4.7"/><circle cx="123.9" cy="35.3" r="4.7"/><circle cx="126.3" cy="164.6" r="4.8"/><circle cx="36.2" cy="69.8" r="4.9"/><circle cx="168.1" cy="79.0" r="4.9"/><circle cx="63.6" cy="162.2" r="5.0"/><circle cx="84.7" cy="28.8" r="5.1"/><circle cx="160.0" cy="142.5" r="5.1"/><circle cx="26.3" cy="109.2" r="5.2"/><circle cx="148.6" cy="42.9" r="5.3"/><circle cx="102.8" cy="175.7" r="5.4"/><circle cx="46.3" cy="45.6" r="5.4"/><circle cx="177.0" cy="103.9" r="5.5"/><circle cx="40.0" cy="149.6" r="5.6"/><circle cx="110.8" cy="22.2" r="5.6"/><circle cx="145.0" cy="165.2" r="5.7"/></svg>